<?xml version="1.0" encoding="UTF-8" standalone="no"?>
<!-- Created with Inkscape (http://www.inkscape.org/) -->

<svg
   width="13.790622mm"
   height="13.790622mm"
   viewBox="0 0 13.790622 13.790622"
   version="1.1"
   id="svg1"
   xml:space="preserve"
   sodipodi:docname="instagram.svg"
   inkscape:version="1.3.2 (091e20e, 2023-11-25)"
   xmlns:inkscape="http://www.inkscape.org/namespaces/inkscape"
   xmlns:sodipodi="http://sodipodi.sourceforge.net/DTD/sodipodi-0.dtd"
   xmlns="http://www.w3.org/2000/svg"
   xmlns:svg="http://www.w3.org/2000/svg"><sodipodi:namedview
     id="namedview1"
     pagecolor="#ffffff"
     bordercolor="#000000"
     borderopacity="0.25"
     inkscape:showpageshadow="2"
     inkscape:pageopacity="0.0"
     inkscape:pagecheckerboard="0"
     inkscape:deskcolor="#d1d1d1"
     inkscape:document-units="mm"
     inkscape:zoom="4.5278355"
     inkscape:cx="26.061017"
     inkscape:cy="26.061017"
     inkscape:window-width="1312"
     inkscape:window-height="431"
     inkscape:window-x="0"
     inkscape:window-y="25"
     inkscape:window-maximized="0"
     inkscape:current-layer="svg1" /><defs
     id="defs1" /><g
     id="layer1"
     transform="matrix(1.0508477,0,0,1.0508477,37.312007,-124.00228)"
     style="display:inline;fill:#ffffff;fill-opacity:1"><g
       id="g2"
       transform="matrix(0.26458333,0,0,0.26458333,-36.406163,116.73214)"
       style="fill:#ffffff;fill-opacity:1">
	<path
   d="m 28.2,16.7 c -7,0 -12.8,5.7 -12.8,12.8 0,7.1 5.7,12.8 12.8,12.8 7.1,0 12.8,-5.8 12.8,-12.8 0,-7 -5.8,-12.8 -12.8,-12.8 z m 0,21 C 23.7,37.7 20,34 20,29.5 c 0,-4.5 3.7,-8.2 8.2,-8.2 4.5,0 8.2,3.7 8.2,8.2 0,4.5 -3.7,8.2 -8.2,8.2 z"
   id="path1-3"
   style="fill:#1a1a1a;fill-opacity:1" />
	<circle
   cx="41.5"
   cy="16.4"
   r="2.9000001"
   id="circle1"
   style="fill:#1a1a1a;fill-opacity:1" />
	<path
   d="M 49,8.9 C 46.4,6.2 42.7,4.8 38.5,4.8 H 17.9 C 9.2,4.8 3.4,10.6 3.4,19.3 v 20.5 c 0,4.3 1.4,8 4.2,10.7 2.7,2.6 6.3,3.9 10.4,3.9 h 20.4 c 4.3,0 7.9,-1.4 10.5,-3.9 C 51.6,47.9 53,44.2 53,39.9 V 19.3 C 53,15.1 51.6,11.5 49,8.9 Z m -0.4,31 c 0,3.1 -1.1,5.6 -2.9,7.3 -1.8,1.7 -4.3,2.6 -7.3,2.6 H 18 c -3,0 -5.5,-0.9 -7.3,-2.6 C 8.9,45.4 8,42.9 8,39.8 V 19.3 C 8,16.3 8.9,13.8 10.7,12 12.4,10.3 15,9.4 18,9.4 h 20.6 c 3,0 5.5,0.9 7.3,2.7 1.7,1.8 2.7,4.3 2.7,7.2 z"
   id="path2"
   style="fill:#1a1a1a;fill-opacity:1" />
</g></g></svg>
